<svg width="20" height="20" xmlns="http://www.w3.org/2000/svg"><g fill="#999" fill-rule="evenodd"><path d="M15.812.059c-.06.008-.12.002-.18.002-.974 0-1.949-.002-2.923.003-.282 0-.562.036-.831.13-.477.167-.764.5-.882.982-.044.18-.062.36-.062.545 0 1.718-.003 3.434.003 5.152 0 .353.023.706.158 1.043.177.438.506.696.957.811.162.04.328.056.495.056h5.591c.213 0 .426-.018.636-.059.626-.115 1.036-.529 1.152-1.15.01-.056-.01-.133.074-.159V1.483c-.01-.01-.013-.023-.013-.038-.038-.123-.043-.25-.084-.376-.182-.537-.557-.854-1.098-.992a1.721 1.721 0 0 0-.5-.054c-.034.003-.077.026-.1-.023h-2.283c-.01.067-.069.054-.11.059zm2.531 1.04c.103 0 .208.024.305.054.177.056.275.195.275.386 0 1.913.002 3.826-.003 5.738 0 .287-.22.46-.54.463-.98.008-1.958.003-2.937.003h-2.898a1 1 0 0 1-.326-.07c-.218-.079-.246-.268-.249-.457-.005-.96-.002-1.918-.002-2.877V1.642c0-.167.038-.32.176-.435.118-.097.265-.11.4-.11 1.934-.003 3.868 0 5.8.003z"/><path d="M15.837.028c-1.003.003-2.005.003-3.005.003-.239 0-.472.025-.703.078-.295.07-.561.196-.762.425-.27.308-.376.684-.376 1.084-.005 1.77-.005 3.543 0 5.314 0 .231.018.466.071.692.071.298.193.572.424.776.297.262.658.381 1.054.381 1.88.003 3.764.003 5.645 0 .236 0 .475-.012.703-.076.483-.137.853-.404 1.016-.91.043-.136.045-.278.096-.41-.081.025-.063.102-.074.157-.114.621-.52 1.03-1.14 1.145a3.495 3.495 0 0 1-.629.059h-5.533c-.166 0-.33-.016-.49-.056-.445-.115-.772-.372-.947-.807-.135-.333-.158-.686-.158-1.038-.005-1.709-.002-3.416-.002-5.125 0-.184.018-.364.06-.542.117-.48.402-.812.874-.977.267-.094.543-.127.822-.13.965-.005 1.93-.002 2.894-.002.059 0 .12.005.178-.003.043-.005.099.005.107-.06-.031.053-.082.022-.125.022zM.063 7.413c.051.318.14.62.364.865.291.323.672.458 1.091.46 1.906.008 3.813.008 5.721 0 .24 0 .48-.025.714-.1.622-.195.992-.694.992-1.35 0-1.882 0-3.762.003-5.645 0-.163-.02-.32-.061-.478A1.452 1.452 0 0 0 7.681.09a2.156 2.156 0 0 0-.315-.028c-.05 0-.114.015-.132-.061H4.975c-.033.053-.084.023-.124.023-1.043.002-2.087-.005-3.13.005C1.345.031.98.094.65.3.333.5.147.786.048 1.14c-.02.068-.005.145-.048.208v5.927c.074.023.056.09.063.138zm1.003-5.877c0-.206.158-.37.368-.414.112-.023.224-.026.335-.026h5.56c.109 0 .213.02.314.051.19.061.274.176.274.372v5.736c0 .209-.096.338-.294.404a.937.937 0 0 1-.315.051c-.944-.002-1.886-.002-2.83-.002-.957 0-1.912.002-2.869-.003-.16 0-.32-.023-.439-.155a.374.374 0 0 1-.104-.257c-.002-1.915-.002-3.836 0-5.757zM1.887 19.369c.054-.008.11-.003.167-.003h5.274c.215 0 .425-.025.633-.079.653-.167 1.06-.682 1.062-1.35.003-.641 0-1.285 0-1.927v-3.755c0-.82-.548-1.425-1.372-1.514-.292-.03-.586-.043-.88-.05-.884-.019-1.768.012-2.649.032-.844.02-1.69.005-2.532.018a1.838 1.838 0 0 0-.837.205c-.348.183-.561.47-.658.848-.018.07-.003.165-.095.203v5.936c.051.14.056.289.1.434.151.525.497.844 1.019.986.166.046.338.059.51.054.035 0 .084-.028.112.022h.051c.005-.058.054-.055.095-.06zm-.292-1.03c-.312 0-.53-.168-.527-.52.01-1.86.005-3.72.002-5.581 0-.3.18-.46.469-.47 1.91-.06 3.818-.012 5.728-.02.164 0 .343-.01.502.076.138.076.217.183.217.348-.002.95 0 1.902 0 2.853 0 .944-.005 1.885.003 2.83.003.306-.2.446-.479.489-.22.033-.435 0-.653-.003-1.754-.005-3.508-.002-5.262-.002zM12.435 13.904c-.312.005-.517.21-.517.507v4.357c0 .312.215.51.527.504.327-.005.533-.175.535-.5.005-1.455.003-2.913 0-4.368 0-.304-.213-.505-.545-.5zM18.85 13.91c-.25-.046-.59.124-.59.46-.006.741 0 1.48 0 2.22v2.206c0 .04-.003.086.01.124.083.238.365.41.595.355.29-.069.454-.183.457-.543.005-1.407.002-2.814.002-4.222-.002-.365-.116-.535-.474-.6zM16.5 15.428c-.066-.238-.33-.426-.56-.383-.315.061-.493.168-.495.53-.008 1.042-.003 2.087-.003 3.13 0 .35.145.506.444.562.281.053.619-.114.621-.484v-3.246c0-.033 0-.073-.008-.109zM15.797 10.8c-.22.049-.355.26-.355.503v2.241c0 .332.102.533.46.601.26.048.608-.132.605-.469-.002-.4 0-.801 0-1.204 0-.388-.005-.776 0-1.167.008-.482-.37-.578-.71-.504zM12.78 10.867c-.125-.087-.256-.084-.39-.084-.267 0-.47.2-.47.464v.66c0 .227-.002.456 0 .684.003.116.033.22.124.312.132.132.284.17.462.164.25-.007.477-.225.477-.474.002-.448.005-.895-.003-1.344a.441.441 0 0 0-.2-.382zM19.279 11.082c-.056-.157-.249-.3-.454-.304-.363-.013-.599.2-.57.578.012.177.002.355.002.532v.634c0 .038 0 .076.01.112.081.261.327.393.606.355.279-.04.441-.213.446-.5.008-.4.003-.803.003-1.204 0-.074-.02-.14-.043-.203z"/><path d="M5.933 3.523a.466.466 0 0 0-.39-.347.687.687 0 0 0-.101-.01c-.016 0-.039.005-.044-.02h-.73c-.01.017-.028.007-.04.007-.338 0-.675-.002-1.012.003a.645.645 0 0 0-.348.088.443.443 0 0 0-.195.272c-.005.023 0 .048-.015.066v1.914c.025.005.018.028.02.043.018.104.046.2.117.28a.468.468 0 0 0 .352.149c.617.002 1.235.002 1.851 0a.716.716 0 0 0 .231-.033.44.44 0 0 0 .322-.436V3.675a.52.52 0 0 0-.018-.152zM16.926 3.328a.466.466 0 0 0-.391-.347.687.687 0 0 0-.101-.01c-.016 0-.038.005-.043-.02h-.73c-.01.017-.029.007-.041.007-.338 0-.675-.003-1.012.002a.645.645 0 0 0-.347.09.443.443 0 0 0-.196.27c-.005.023 0 .049-.015.066v1.915c.025.005.018.028.02.043.018.104.046.2.117.279a.467.467 0 0 0 .352.15c.617.002 1.235.002 1.852 0a.714.714 0 0 0 .23-.034.44.44 0 0 0 .322-.436V3.48a.441.441 0 0 0-.017-.152zM5.918 14.143a.466.466 0 0 0-.39-.348.687.687 0 0 0-.102-.01c-.015 0-.038.005-.043-.02h-.73c-.01.018-.028.007-.04.007-.338 0-.675-.002-1.012.003a.647.647 0 0 0-.348.089.443.443 0 0 0-.195.271c-.005.023 0 .048-.015.066v1.914c.025.005.018.028.02.044.018.103.046.2.117.278a.468.468 0 0 0 .352.15c.616.003 1.235.003 1.851 0a.716.716 0 0 0 .231-.033.44.44 0 0 0 .322-.436v-1.823a.52.52 0 0 0-.018-.152z"/></g></svg>